<svg width="40" height="50" viewBox="0 0 40 50" fill="none" xmlns="http://www.w3.org/2000/svg">
<path d="M1 1H29.5858L39 10.4142V49H1V1Z" stroke="#F58823" stroke-width="2"/>
<path d="M29 0V11H40" stroke="#F58823" stroke-width="2"/>
<path d="M12.86 22C13.48 22 14.0167 22.1033 14.47 22.31C14.93 22.5167 15.2833 22.81 15.53 23.19C15.7767 23.57 15.9 24.02 15.9 24.54C15.9 25.0533 15.7767 25.5033 15.53 25.89C15.2833 26.27 14.93 26.5633 14.47 26.77C14.0167 26.97 13.48 27.07 12.86 27.07H11.45V29H9.83V22H12.86ZM12.77 25.75C13.2567 25.75 13.6267 25.6467 13.88 25.44C14.1333 25.2267 14.26 24.9267 14.26 24.54C14.26 24.1467 14.1333 23.8467 13.88 23.64C13.6267 23.4267 13.2567 23.32 12.77 23.32H11.45V25.75H12.77ZM17.0566 22H20.2366C20.9966 22 21.6666 22.1467 22.2466 22.44C22.8332 22.7267 23.2866 23.1333 23.6066 23.66C23.9332 24.1867 24.0966 24.8 24.0966 25.5C24.0966 26.2 23.9332 26.8133 23.6066 27.34C23.2866 27.8667 22.8332 28.2767 22.2466 28.57C21.6666 28.8567 20.9966 29 20.2366 29H17.0566V22ZM20.1566 27.67C20.8566 27.67 21.4132 27.4767 21.8266 27.09C22.2466 26.6967 22.4566 26.1667 22.4566 25.5C22.4566 24.8333 22.2466 24.3067 21.8266 23.92C21.4132 23.5267 20.8566 23.33 20.1566 23.33H18.6766V27.67H20.1566ZM26.9383 23.3V25.15H30.1783V26.45H26.9383V29H25.3183V22H30.6083V23.3H26.9383Z" fill="#F58823"/>
</svg>
