<svg width="606" height="218" viewBox="0 0 606 218" fill="none" xmlns="http://www.w3.org/2000/svg">
<path d="M195.001 169.5H160.801V213.6H113.401V169.5L0.300781 169.5L0.300781 136.8L99.3008 3.59999L150.301 3.59999L58.5008 129.9L114.901 129.9V90.6L160.801 90.6V129.9H195.001V169.5Z" fill="white"/>
<path d="M299.537 217.2C282.137 217.2 266.637 212.9 253.037 204.3C239.437 195.7 228.737 183.3 220.937 167.1C213.337 150.7 209.537 131.2 209.537 108.6C209.537 86 213.337 66.6 220.937 50.4C228.737 34 239.437 21.5 253.037 12.9C266.637 4.3 282.137 0 299.537 0C316.937 0 332.437 4.3 346.037 12.9C359.637 21.5 370.237 34 377.837 50.4C385.637 66.6 389.537 86 389.537 108.6C389.537 131.2 385.637 150.7 377.837 167.1C370.237 183.3 359.637 195.7 346.037 204.3C332.437 212.9 316.937 217.2 299.537 217.2ZM299.537 176.1C312.337 176.1 322.337 170.6 329.537 159.6C336.937 148.6 340.637 131.6 340.637 108.6C340.637 85.6 336.937 68.6 329.537 57.6C322.337 46.6 312.337 41.1 299.537 41.1C286.937 41.1 276.937 46.6 269.537 57.6C262.337 68.6 258.737 85.6 258.737 108.6C258.737 131.6 262.337 148.6 269.537 159.6C276.937 170.6 286.937 176.1 299.537 176.1Z" fill="white"/>
<path d="M605.45 169.5H571.25V213.6H523.85V169.5L410.75 169.5V136.8L509.75 3.59999L560.75 3.59999L468.95 129.9H525.35V90.6H571.25V129.9H605.45V169.5Z" fill="white"/>
</svg>
