<svg width="14" height="19" viewBox="0 0 14 19" fill="none" xmlns="http://www.w3.org/2000/svg">
<path fill-rule="evenodd" clip-rule="evenodd" d="M7.02769 0.495728L13.7593 8.34924C14.1187 8.76856 14.0701 9.39986 13.6508 9.75928C13.2315 10.1187 12.6002 10.0701 12.2408 9.65082L6.97234 3.50433L1.73482 9.17831C1.36022 9.58413 0.727557 9.60944 0.321736 9.23483C-0.0840844 8.86023 -0.109391 8.22757 0.265213 7.82175L7.02769 0.495728Z" fill="white"/>
<path fill-rule="evenodd" clip-rule="evenodd" d="M7 7C7.55228 7 8 7.44772 8 8L8 18C8 18.5523 7.55229 19 7 19C6.44772 19 6 18.5523 6 18L6 8C6 7.44772 6.44772 7 7 7Z" fill="white"/>
</svg>
