<svg width="18" height="68" viewBox="0 0 18 68" fill="none" xmlns="http://www.w3.org/2000/svg">
<path d="M8.00002 1.82165C8.00002 1.26937 8.44773 0.821655 9.00002 0.821655C9.5523 0.821655 10 1.26937 10 1.82166V65.8217C10 66.3739 9.5523 66.8217 9.00002 66.8217C8.44773 66.8217 8.00002 66.3739 8.00002 65.8217V1.82165Z" fill="white"/>
<path fill-rule="evenodd" clip-rule="evenodd" d="M0.292908 57.1145C0.683433 56.724 1.3166 56.724 1.70712 57.1145L9.00002 64.4074L16.2929 57.1145C16.6834 56.724 17.3166 56.724 17.7071 57.1145C18.0976 57.5051 18.0976 58.1382 17.7071 58.5288L9.00002 67.2359L0.292908 58.5288C-0.0976158 58.1382 -0.0976158 57.5051 0.292908 57.1145Z" fill="white"/>
</svg>
