<svg width="10" height="8" viewBox="0 0 10 8" fill="none" xmlns="http://www.w3.org/2000/svg">
<path fill-rule="evenodd" clip-rule="evenodd" d="M9.89097 1.55671L4.00837 7.88096C3.94536 7.95588 3.84629 8 3.74107 8C3.63584 8 3.53678 7.95588 3.47377 7.88096L3.34986 7.75392L3.22096 7.61534L2.66637 7.01836L0.111281 4.25022C-0.0370937 4.08101 -0.0370937 3.84378 0.111281 3.67456L0.910684 2.81196C0.973693 2.73704 1.07276 2.69292 1.17798 2.69292C1.28321 2.69292 1.38227 2.73704 1.44528 2.81196L3.73557 5.29049L8.55297 0.11845C8.61622 0.0438595 8.7152 0 8.82027 0C8.92534 0 9.02432 0.0438595 9.08757 0.11845L9.88697 0.98105C10.0362 1.14956 10.0378 1.38657 9.89097 1.55671Z"/>
</svg>
