<svg width="40" height="50" viewBox="0 0 40 50" fill="none" xmlns="http://www.w3.org/2000/svg">
<path fill-rule="evenodd" clip-rule="evenodd" d="M29.1716 2H2V48H38V10.8284L29.1716 2ZM30 0H0V50H40V10L30 0Z" fill="#F58823"/>
<path fill-rule="evenodd" clip-rule="evenodd" d="M28 0H30V10H40V12H28V0Z" fill="#F58823"/>
<path d="M12.86 22C13.48 22 14.0166 22.1033 14.47 22.31C14.93 22.5167 15.2833 22.81 15.53 23.19C15.7766 23.57 15.9 24.02 15.9 24.54C15.9 25.0533 15.7766 25.5033 15.53 25.89C15.2833 26.27 14.93 26.5633 14.47 26.77C14.0166 26.97 13.48 27.07 12.86 27.07H11.45V29H9.82996V22H12.86ZM12.77 25.75C13.2566 25.75 13.6266 25.6467 13.88 25.44C14.1333 25.2267 14.26 24.9267 14.26 24.54C14.26 24.1467 14.1333 23.8467 13.88 23.64C13.6266 23.4267 13.2566 23.32 12.77 23.32H11.45V25.75H12.77Z" fill="#F58823"/>
<path d="M17.0565 22H20.2365C20.9965 22 21.6665 22.1467 22.2465 22.44C22.8332 22.7267 23.2865 23.1333 23.6065 23.66C23.9332 24.1867 24.0965 24.8 24.0965 25.5C24.0965 26.2 23.9332 26.8133 23.6065 27.34C23.2865 27.8667 22.8332 28.2767 22.2465 28.57C21.6665 28.8567 20.9965 29 20.2365 29H17.0565V22ZM20.1565 27.67C20.8565 27.67 21.4132 27.4767 21.8265 27.09C22.2465 26.6967 22.4565 26.1667 22.4565 25.5C22.4565 24.8333 22.2465 24.3067 21.8265 23.92C21.4132 23.5267 20.8565 23.33 20.1565 23.33H18.6765V27.67H20.1565Z" fill="#F58823"/>
<path d="M26.9382 23.3V25.15H30.1782V26.45H26.9382V29H25.3182V22H30.6082V23.3H26.9382Z" fill="#F58823"/>
</svg>
