<svg width="3" height="10" viewBox="0 0 3 10" fill="none" xmlns="http://www.w3.org/2000/svg">
<path d="M2.4375 6.1582H1.00781L0.708984 0.433594H2.73633L2.4375 6.1582ZM0.685547 8.16211C0.685547 7.83398 0.773438 7.58594 0.949219 7.41797C1.125 7.25 1.38086 7.16602 1.7168 7.16602C2.04102 7.16602 2.29102 7.25195 2.4668 7.42383C2.64648 7.5957 2.73633 7.8418 2.73633 8.16211C2.73633 8.4707 2.64648 8.71484 2.4668 8.89453C2.28711 9.07031 2.03711 9.1582 1.7168 9.1582C1.38867 9.1582 1.13477 9.07227 0.955078 8.90039C0.775391 8.72461 0.685547 8.47852 0.685547 8.16211Z" fill="#F5203A"/>
</svg>
