<svg width="20" height="15" viewBox="0 0 20 15" fill="none" xmlns="http://www.w3.org/2000/svg">
<path fill-rule="evenodd" clip-rule="evenodd" d="M2.00002 0.821655H18C19.1046 0.821655 20 1.71709 20 2.82166V12.8217C20 13.9262 19.1046 14.8217 18 14.8217H2.00002C0.895446 14.8217 1.52588e-05 13.9262 1.52588e-05 12.8217V2.82166C1.52588e-05 1.71709 0.895446 0.821655 2.00002 0.821655ZM2.00002 2.82166V12.8217H18V2.82166H2.00002ZM4.19602 5.01324C3.84121 5.43648 3.89668 6.06721 4.31992 6.42202L8.73963 10.1272C9.49243 10.7583 10.5921 10.7492 11.3344 10.1059L15.5971 6.41135C16.0144 6.04963 16.0595 5.41808 15.6978 5.00073C15.3361 4.58339 14.7045 4.53829 14.2872 4.90001L10.0245 8.59452L5.6048 4.88935C5.18156 4.53454 4.55083 4.59001 4.19602 5.01324Z" fill="white"/>
</svg>
