<?xml version="1.0" encoding="utf-8"?>
<!-- Generator: Adobe Illustrator 21.1.0, SVG Export Plug-In . SVG Version: 6.00 Build 0)  -->
<svg version="1.2" baseProfile="tiny" id="Слой_1"
	 xmlns="http://www.w3.org/2000/svg" xmlns:xlink="http://www.w3.org/1999/xlink" x="0px" y="0px" viewBox="0 0 24 24"
	 xml:space="preserve">
<path fill-rule="evenodd" fill="#FFFFFF" d="M10.2,13.3c-0.5-0.5-1.1-1.5-1.5-2.4c-0.2-0.3,0-0.6,0.1-0.7c0.4-0.4,0.7-0.7,1-0.9
	c0.3-0.3,0.3-0.6,0.1-1.1C9.6,7.4,9.4,6.4,9,5.3c-0.1-0.4-0.6-0.5-1-0.5c-0.4,0-0.7-0.1-1,0.1C7,4.9,6.9,4.9,6.8,4.9
	c-1.4,0.8-2.5,3-1.3,5.8c0.5,1,1.1,2.1,2.3,3.7c0.6,0.9,1.4,1.7,2,2.1c1,0.9,1.9,1.4,2.7,1.8c0.4,0.2,0.7,0.3,1.1,0.5
	c0.7,0.3,1.3,0.5,1.8,0.6c0.2,0,0.5,0.1,0.7,0.1c0.5,0,1-0.1,1.4-0.3c0.8-0.3,1.5-0.8,1.7-1.6c0.1-0.2,0.1-0.4,0.2-0.6
	c0.1-0.6,0.1-0.8-0.2-1c-1-0.6-1.9-1.2-2.6-1.6c-0.4-0.2-0.8-0.3-1,0c-0.3,0.3-0.8,0.9-1.2,1.3c-0.2,0.2-0.6,0.2-0.9,0.1
	C12.1,15.1,11.1,14.3,10.2,13.3z"/>
</svg>
