<svg width="20" height="19" viewBox="0 0 20 19" fill="none" xmlns="http://www.w3.org/2000/svg">
<path fill-rule="evenodd" clip-rule="evenodd" d="M12.8995 18.7469C13.3508 18.9071 13.8262 18.9888 14.3051 18.9883C15.4317 18.9855 16.5109 18.5341 17.3041 17.734L18.3384 16.689C18.9796 16.0405 19.2731 15.1251 19.1285 14.2247C18.984 13.3242 18.4186 12.5467 17.6066 12.1316L14.6366 10.6038C13.8886 10.2314 12.9892 10.3524 12.3663 10.9094L12.0195 11.2271C11.6723 11.5397 11.1691 11.6076 10.7514 11.3982C9.74443 10.882 8.92474 10.0628 8.4078 9.05615C8.1933 8.63991 8.26165 8.13401 8.57891 7.78961L8.89211 7.44433C9.45911 6.82673 9.58107 5.92117 9.19767 5.17556L7.66988 2.20707C7.28184 1.4555 6.58181 0.913573 5.75699 0.726221C4.93217 0.53887 4.06671 0.725206 3.39207 1.2354L2.48915 1.92443C1.07025 3.00807 0.48866 4.86854 1.03775 6.56738C2.89634 12.2426 7.27543 16.739 12.8995 18.7469ZM17.0348 15.4L16.0011 16.4443C15.5524 16.8969 14.9406 17.153 14.3019 17.155C14.033 17.1551 13.7662 17.1092 13.5128 17.0192C8.42567 15.203 4.46222 11.1333 2.78003 5.99679C2.47213 5.04412 2.80058 3.99343 3.6019 3.38145L4.50427 2.69284C4.74124 2.51365 5.0534 2.44644 5.3509 2.51402C5.6484 2.58159 5.9009 2.77706 6.04086 3.04814L7.56756 6.01453C7.59946 6.07656 7.58922 6.15261 7.54161 6.20447L7.221 6.55787C6.39174 7.45798 6.21104 8.79549 6.77813 9.89596C7.46911 11.2415 8.56666 12.3384 9.91501 13.0297C11.0221 13.5846 12.338 13.407 13.246 12.5898L13.6049 12.2611C13.6517 12.2193 13.7433 12.207 13.8194 12.2449L16.768 13.7619C17.0635 13.913 17.2665 14.1921 17.3184 14.5153C17.3703 14.8386 17.2649 15.1672 17.0348 15.4Z" fill="white"/>
</svg>
