<svg width="12" height="12" viewBox="0 0 12 12" fill="none" xmlns="http://www.w3.org/2000/svg">
<path fill-rule="evenodd" clip-rule="evenodd" d="M8.50472 11.3333C8.2261 11.3336 7.9495 11.2861 7.68693 11.1929C4.41475 10.0246 1.86691 7.40853 0.785551 4.1066C0.46608 3.11819 0.804458 2.03574 1.63 1.40525L2.15534 1.00436C2.54785 0.707522 3.05139 0.599108 3.53129 0.708113C4.01118 0.817118 4.41848 1.13242 4.64425 1.5697L5.53314 3.29682C5.75621 3.73063 5.68525 4.2575 5.35536 4.61683L5.17314 4.81772C4.98855 5.0181 4.94878 5.31244 5.07358 5.55461C5.37435 6.14031 5.85126 6.61691 6.43715 6.91729C6.68013 7.03908 6.97292 6.99957 7.17493 6.81773L7.37671 6.63284C7.73912 6.30881 8.26242 6.23837 8.69761 6.45507L10.4256 7.34396C10.8981 7.5855 11.227 8.03786 11.3111 8.56174C11.3952 9.08563 11.2245 9.61823 10.8514 9.99553L10.2496 10.6035C9.78811 11.0691 9.16023 11.3317 8.50472 11.3333Z" fill="white"/>
</svg>
