<svg width="48" height="48" viewBox="0 0 48 48" fill="none" xmlns="http://www.w3.org/2000/svg">
<path fill-rule="evenodd" clip-rule="evenodd" d="M0.999999 24C0.999998 36.7025 11.2974 47 24 47C36.7025 47 47 36.7025 47 24C47 11.2975 36.7025 1 24 0.999999C11.2975 0.999998 1 11.2974 0.999999 24ZM-1.04907e-06 24C-1.62846e-06 37.2548 10.7452 48 24 48C37.2548 48 48 37.2548 48 24C48 10.7452 37.2548 -4.69686e-07 24 -1.04907e-06C10.7452 -1.62846e-06 -4.69686e-07 10.7452 -1.04907e-06 24Z" fill="white"/>
<path fill-rule="evenodd" clip-rule="evenodd" d="M32.7071 20.2929C33.0976 20.6834 33.0976 21.3166 32.7071 21.7071L24 30.4142L15.2929 21.7071C14.9024 21.3166 14.9024 20.6834 15.2929 20.2929C15.6834 19.9024 16.3166 19.9024 16.7071 20.2929L24 27.5858L31.2929 20.2929C31.6834 19.9024 32.3166 19.9024 32.7071 20.2929Z" fill="white"/>
</svg>
