<svg width="18" height="18" viewBox="0 0 18 18" fill="none" xmlns="http://www.w3.org/2000/svg">
<path fill-rule="evenodd" clip-rule="evenodd" d="M6.75377 7.5055e-06C9.33068 -0.00382854 11.6842 1.46305 12.8169 3.77902C13.9496 6.09498 13.6632 8.8545 12.079 10.8881L17.753 16.5594C17.966 16.7726 18.0492 17.0833 17.9712 17.3745C17.8933 17.6657 17.6659 17.8932 17.3749 17.9712C17.0838 18.0493 16.7733 17.966 16.5602 17.7528L10.8863 12.0764C8.55743 13.8886 5.32174 13.9761 2.89843 12.2925C0.475125 10.6088 -0.57341 7.54469 0.309946 4.72817C1.1933 1.91166 3.80354 -0.00361151 6.75377 7.5055e-06ZM6.75377 11.8158C8.80096 11.8161 10.6468 10.5825 11.4304 8.69012C12.2141 6.79776 11.7813 4.61938 10.3338 3.17083C8.88637 1.72229 6.70933 1.28885 4.81794 2.07265C2.92655 2.85646 1.6933 4.70313 1.6933 6.75151C1.69897 9.54505 3.96185 11.8077 6.75377 11.8115V11.8158Z" fill="white"/>
</svg>
