<svg width="24" height="24" viewBox="0 0 24 24" fill="none" xmlns="http://www.w3.org/2000/svg">
<path fill-rule="evenodd" clip-rule="evenodd" d="M9.75377 3.00001C12.3307 2.99617 14.6842 4.46305 15.8169 6.77902C16.9496 9.09498 16.6632 11.8545 15.079 13.8881L20.753 19.5594C20.966 19.7726 21.0492 20.0833 20.9712 20.3745C20.8933 20.6657 20.6659 20.8932 20.3749 20.9712C20.0838 21.0493 19.7733 20.966 19.5602 20.7528L13.8863 15.0764C11.5574 16.8886 8.32174 16.9761 5.89843 15.2925C3.47512 13.6088 2.42659 10.5447 3.30995 7.72817C4.1933 4.91166 6.80354 2.99639 9.75377 3.00001ZM9.75377 14.8158C11.801 14.8161 13.6468 13.5825 14.4304 11.6901C15.2141 9.79776 14.7813 7.61938 13.3338 6.17083C11.8864 4.72229 9.70933 4.28885 7.81794 5.07265C5.92655 5.85646 4.6933 7.70313 4.6933 9.75151C4.69897 12.5451 6.96185 14.8077 9.75377 14.8115V14.8158Z" fill="#F58823"/>
<mask id="mask0" mask-type="alpha" maskUnits="userSpaceOnUse" x="3" y="3" width="18" height="18">
<path fill-rule="evenodd" clip-rule="evenodd" d="M9.75377 3.00001C12.3307 2.99617 14.6842 4.46305 15.8169 6.77902C16.9496 9.09498 16.6632 11.8545 15.079 13.8881L20.753 19.5594C20.966 19.7726 21.0492 20.0833 20.9712 20.3745C20.8933 20.6657 20.6659 20.8932 20.3749 20.9712C20.0838 21.0493 19.7733 20.966 19.5602 20.7528L13.8863 15.0764C11.5574 16.8886 8.32174 16.9761 5.89843 15.2925C3.47512 13.6088 2.42659 10.5447 3.30995 7.72817C4.1933 4.91166 6.80354 2.99639 9.75377 3.00001ZM9.75377 14.8158C11.801 14.8161 13.6468 13.5825 14.4304 11.6901C15.2141 9.79776 14.7813 7.61938 13.3338 6.17083C11.8864 4.72229 9.70933 4.28885 7.81794 5.07265C5.92655 5.85646 4.6933 7.70313 4.6933 9.75151C4.69897 12.5451 6.96185 14.8077 9.75377 14.8115V14.8158Z" fill="white"/>
</mask>
<g mask="url(#mask0)">
<rect width="24" height="24" fill="#F58823"/>
</g>
</svg>
