<svg width="121" height="40" viewBox="0 0 121 40" fill="none" xmlns="http://www.w3.org/2000/svg">
<g fill="#32A457">
  <path d="M114.444 27.2576H3.21279L2.54938 29.6953H113.892L114.444 27.2576Z"/>
</g>
<g fill="white" class="svg-logo-letters">
  <path d="M5.86645 39.3352C4.76077 39.7784 4.09736 40 3.10225 40C0.448608 40 -0.32537 38.338 0.116903 36.6759C0.559176 34.9031 2.43884 33.3518 5.09247 33.3518C5.97702 33.3518 6.86157 33.5734 7.41441 33.9058L6.97213 35.3463C6.30873 34.9031 5.64532 34.6814 4.87134 34.6814C3.43395 34.6814 2.2177 35.4571 1.88599 36.6759C1.55429 37.7839 2.32827 38.6704 3.76566 38.6704C4.6502 38.6704 5.31361 38.4488 6.41929 38.0055L5.86645 39.3352Z" />
  <path d="M11.5054 40C9.07293 40 8.07782 38.338 8.52009 36.6759C8.96237 35.1247 10.7315 33.3518 13.2745 33.3518C15.8176 33.3518 16.5916 35.1247 16.2599 36.6759C15.8176 38.338 13.9379 40 11.5054 40ZM12.9428 34.6814C11.616 34.6814 10.6209 35.4571 10.2892 36.6759C9.95748 37.8947 10.6209 38.6704 11.8371 38.6704C13.0534 38.6704 14.1591 37.8947 14.4908 36.6759C14.8225 35.4571 14.2696 34.6814 12.9428 34.6814Z" />
  <path d="M25.1053 33.3518H26.5427L24.7736 39.8892H23.1151L24.2208 35.7895L21.8988 37.7839H21.6777L20.4614 35.7895L19.3558 39.8892H17.5867L19.3558 33.3518H20.7931L22.3411 35.7895L25.1053 33.3518Z" />
  <path d="M34.7248 33.3518H36.1622L34.3931 39.8892H32.7346L33.8402 35.7895L31.5183 37.7839H31.2972L30.0809 35.7895L28.9752 39.8892H27.3167L29.0858 33.3518H30.5232L32.0711 35.7895L34.7248 33.3518Z" />
  <path d="M45.3393 33.3518L44.3442 37.0083C43.7913 39.1136 42.0222 39.8892 40.2531 39.8892C38.2629 39.8892 37.1572 39.0028 37.7101 37.0083L38.5946 33.3518H40.2531L39.258 37.1191C39.0369 38.0056 39.5897 38.5596 40.4743 38.5596C41.3588 38.5596 42.2434 38.1164 42.5751 36.8975L43.5702 33.241H45.3393V33.3518Z" />
  <path d="M52.8579 39.8892H51.4206L48.8775 35.6787L47.7718 39.8892H46.1133L47.8824 33.3518H49.4303L51.9734 37.3407L53.0791 33.3518H54.7376L52.8579 39.8892Z" />
  <path d="M57.0595 39.8892H55.401L57.1701 33.3518H58.8286L57.0595 39.8892Z" />
  <path d="M66.0155 39.3352C64.9099 39.7784 64.2465 40 63.2513 40C60.5977 40 59.8237 38.338 60.266 36.6759C60.7083 34.9031 62.5879 33.3518 65.2416 33.3518C66.1261 33.3518 67.0107 33.5734 67.5635 33.9058L67.2318 35.3463C66.5684 34.9031 65.905 34.6814 65.131 34.6814C63.6936 34.6814 62.4774 35.4571 62.1457 36.6759C61.814 37.7839 62.5879 38.6704 64.0253 38.6704C64.9099 38.6704 65.5733 38.4488 66.679 38.0055L66.0155 39.3352Z" />
  <path d="M75.0822 39.8892H73.3131L73.0919 38.5596H70.1066L69.222 39.8892H67.4529L71.8757 33.3518H73.8659L75.0822 39.8892ZM72.4285 34.9031L70.77 37.4515H72.8708L72.4285 34.9031Z" />
  <path d="M83.2642 34.5706H80.8317L79.3943 39.8892H77.7358L79.1732 34.5706H76.7407L77.0724 33.3518H83.5959L83.2642 34.5706Z" />
  <path d="M85.5861 39.8892H83.9276L85.6967 33.3518H87.3552L85.5861 39.8892Z" />
  <path d="M91.6674 40C89.2349 40 88.2397 38.338 88.682 36.6759C89.1243 35.1247 90.8934 33.3518 93.4365 33.3518C95.9795 33.3518 96.7535 35.1247 96.4218 36.6759C95.9795 38.338 94.0999 40 91.6674 40ZM93.1048 34.6814C91.7779 34.6814 90.7828 35.4571 90.4511 36.6759C90.1194 37.8947 90.7828 38.6704 91.9991 38.6704C93.2153 38.6704 94.321 37.8947 94.6527 36.6759C94.9844 35.4571 94.321 34.6814 93.1048 34.6814Z" />
  <path d="M104.493 39.8892H103.056L100.513 35.6787L99.4072 39.8892H97.7487L99.5177 33.3518H101.066L103.609 37.3407L104.714 33.3518H106.373L104.493 39.8892Z" />
  <path d="M112.786 35.0139C111.901 34.5706 111.349 34.4598 110.796 34.4598C110.243 34.4598 109.801 34.6814 109.69 35.0139C109.469 36.0111 112.896 35.6787 112.344 38.0055C112.012 39.2244 110.685 40 109.248 40C108.031 40 107.589 39.6676 107.036 39.3352L107.368 37.8947C108.142 38.5596 108.695 38.7812 109.469 38.7812C110.132 38.7812 110.464 38.5596 110.575 38.2272C110.906 37.1191 107.368 37.5623 107.921 35.2355C108.253 34.1274 109.469 33.3518 111.017 33.3518C111.791 33.3518 112.454 33.4626 113.118 33.9058L112.786 35.0139Z" />
  <path d="M27.2061 14.1828C30.5232 14.1828 33.8402 11.5235 34.7248 8.19945L35.2776 5.98338C36.1621 2.65928 34.1719 0 30.9654 0L16.1493 0.110803C12.8322 0.110803 9.51519 2.77008 8.63065 6.09418L5.64531 17.1745L4.09735 23.1579C7.08269 23.1579 10.1786 20.9418 11.3949 17.9501H11.5054L14.2696 6.759C14.4908 5.98338 15.3753 5.31856 16.1493 5.31856H28.0907C28.8646 5.31856 29.4175 5.98338 29.1963 6.759L28.9752 7.42382C28.7541 8.31025 27.8695 8.97507 26.985 8.97507H17.3655C15.707 8.97507 14.0485 10.3047 13.6062 11.9668C13.3851 12.964 13.6062 13.7396 14.1591 14.2936L21.4566 21.2742C23.5574 23.1579 27.759 23.6011 31.1866 22.1607L22.4517 14.072H27.2061V14.1828ZM74.1976 5.31856H84.4804C88.5715 5.31856 92.6625 3.10249 93.9893 0.110803H85.8073H73.9765C70.6594 0.110803 67.3424 2.77008 66.4578 6.09418L63.4725 17.2853C62.5879 20.6094 64.5782 23.2687 67.7847 23.2687H87.7975C88.0186 20.277 85.1439 18.0609 81.0528 18.0609H70.6594C69.8854 18.0609 69.3326 17.3961 69.5537 16.6205L72.0968 7.09141C72.4285 5.98338 73.3131 5.31856 74.1976 5.31856ZM63.5831 6.09418C64.4676 2.77008 62.4774 0.110803 59.2709 0.110803V0.221607L59.1603 0.110803H39.1475C38.9263 3.10249 41.8011 5.31856 45.8921 5.31856H56.3961C57.1701 5.31856 57.7229 5.98338 57.5018 6.759L56.949 8.97507H41.9117C38.5946 8.97507 35.2776 11.6343 34.393 14.9584L33.8402 17.1745C32.9557 20.4986 34.9459 23.1579 38.1524 23.1579H53.0791C56.3961 23.1579 59.7132 20.4986 60.5977 17.1745L63.5831 6.09418ZM54.8482 16.3989C54.627 17.2853 53.7425 17.9501 52.8579 17.9501H41.1377C40.2532 17.9501 39.7003 17.2853 40.032 16.3989L40.2532 15.7341C40.4743 14.9584 41.3588 14.2936 42.1328 14.2936H55.6221L54.8482 16.3989ZM120.636 6.09418C121.521 2.77008 119.531 0.110803 116.324 0.110803H101.397C98.0803 0.110803 94.7633 2.77008 93.8787 6.09418L90.8934 17.2853C90.0089 20.6094 91.9991 23.2687 95.2056 23.2687H115.218C115.44 20.277 112.565 18.0609 108.474 18.0609H98.0803C97.3064 18.0609 96.7535 17.3961 96.9747 16.6205L97.5275 14.4044H112.344C115.661 14.4044 118.978 11.7452 119.862 8.42105L120.636 6.09418ZM114.223 7.53463C114.002 8.31025 113.118 8.97507 112.344 8.97507H99.0754L99.6283 6.86981C99.8494 5.98338 100.734 5.31856 101.619 5.31856H113.339C114.223 5.31856 114.776 5.98338 114.444 6.86981L114.223 7.53463Z" />
</g>
</svg>
