<?xml version="1.0" encoding="utf-8"?>
<!-- Generator: Adobe Illustrator 21.1.0, SVG Export Plug-In . SVG Version: 6.00 Build 0)  -->
<svg version="1.2" baseProfile="tiny" id="header-search"
	 xmlns="http://www.w3.org/2000/svg" xmlns:xlink="http://www.w3.org/1999/xlink" x="0px" y="0px" viewBox="0 0 24 24"
	 xml:space="preserve">
<g>
	<path class="search-color" fill-rule="evenodd" fill="#FFFFFF" d="M11,5.9c2.8,0,5,2.2,5,5s-2.2,5-5,5c-2.8,0-5-2.2-5-5S8.2,5.9,11,5.9L11,5.9z
		 M16.3,14.7c0.7-1,1.1-2.3,1.1-3.7c0-3.6-2.9-6.5-6.5-6.5c-3.6,0-6.5,2.9-6.5,6.5c0,3.6,2.9,6.5,6.5,6.5c1.4,0,2.7-0.4,3.7-1.2
		l2.9,2.9c0.4,0.4,1.1,0.4,1.6,0c0.4-0.4,0.4-1.1,0-1.6L16.3,14.7z"/>
	<path fill="#FF9900" d="M10.8,7.5c-0.2,0-0.4-0.2-0.4-0.4c0-0.2,0.2-0.4,0.4-0.4c1,0,1.9,0.3,2.7,0.8c0.7,0.5,1.3,1.3,1.5,2.2
		c0.1,0.2-0.1,0.4-0.3,0.5c-0.2,0.1-0.4-0.1-0.5-0.3C14,9.2,13.6,8.6,13,8.2C12.4,7.7,11.6,7.5,10.8,7.5z"/>
</g>
</svg>
